<?xml version="1.0" encoding="UTF-8"?>
<svg width="125px" height="60px" viewBox="0 0 125 60" version="1.1" xmlns="http://www.w3.org/2000/svg" xmlns:xlink="http://www.w3.org/1999/xlink">
    <!-- Generator: Sketch 48.2 (47327) - http://www.bohemiancoding.com/sketch -->
    <title>birka</title>
    <desc>Created with Sketch.</desc>
    <defs>
        <path d="M16.1401836,4.90353123 C18.0434988,2.19538571 22.2716563,0 25.5946627,0 L118.999905,0 C122.318155,0 125.008127,2.69463714 125.008127,6.0000383 L125.008127,53.9999617 C125.008127,57.3136914 122.322912,60 118.999905,60 L25.5946627,60 C22.2764132,60 18.0446012,57.8061829 16.1401836,55.0964688 L1.94836006,34.9035312 C0.0450449381,32.1953857 0.0439425166,27.8061829 1.94836006,25.0964688 L16.1401836,4.90353123 Z" id="path-1"></path>
    </defs>
    <g id="card" stroke="none" stroke-width="1" fill="none" fill-rule="evenodd" transform="translate(-83.000000, -258.000000)" opacity="0.800000012">
        <g transform="translate(-1.000000, 179.000000)" id="discount">
            <g transform="translate(84.000000, 79.000000)">
                <g id="birka" transform="translate(62.764294, 30.000000) scale(-1, 1) translate(-62.764294, -30.000000) ">
                    <use fill="#FFFFFF" fill-rule="evenodd" xlink:href="#path-1"></use>
                    <path stroke="#DCDCDC" stroke-width="1" d="M16.5492586,5.19103371 L2.35743502,25.3839713 C0.57464054,27.9206331 0.574963526,32.0798264 2.35743502,34.6160287 L16.5492586,54.8089663 C18.3595958,57.3848176 22.4384435,59.5 25.5946627,59.5 L118.999905,59.5 C122.045218,59.5 124.508127,57.0390992 124.508127,53.9999617 L124.508127,6.0000383 C124.508127,2.9679484 122.03918,0.5 118.999905,0.5 L25.5946627,0.5 C22.4360305,0.5 18.3598385,2.61483717 16.5492586,5.19103371 Z"></path>
                </g>
            </g>
        </g>
    </g>
</svg>