<svg width="125" height="60" xmlns="http://www.w3.org/2000/svg" xmlns:xlink="http://www.w3.org/1999/xlink"><defs><path d="M16.14 4.904C18.043 2.195 22.272 0 25.595 0H119c3.318 0 6.008 2.695 6.008 6v48A6 6 0 0 1 119 60H25.595c-3.319 0-7.55-2.194-9.455-4.904L1.948 34.904c-1.903-2.709-1.904-7.098 0-9.808L16.14 4.904z" id="a"/></defs><g transform="matrix(-1 0 0 1 125.529 0)" fill="none" fill-rule="evenodd" opacity=".8"><use fill="#FFF" xlink:href="#a"/><path stroke="#DCDCDC" d="M16.55 5.191L2.356 25.384c-1.782 2.537-1.782 6.696 0 9.232L16.55 54.809c1.81 2.576 5.89 4.691 9.046 4.691H119a5.501 5.501 0 0 0 5.508-5.5V6A5.51 5.51 0 0 0 119 .5H25.595c-3.159 0-7.235 2.115-9.046 4.691z"/></g></svg>