<?xml version="1.0" encoding="UTF-8"?>
<svg width="1500px" height="1500px" viewBox="0 0 1500 1500" version="1.1" xmlns="http://www.w3.org/2000/svg" xmlns:xlink="http://www.w3.org/1999/xlink">
    <!-- Generator: Sketch 50.2 (55047) - http://www.bohemiancoding.com/sketch -->
    <title>Artboard 2</title>
    <desc>Created with Sketch.</desc>
    <defs></defs>
    <g id="Artboard-2" stroke="none" stroke-width="1" fill="none" fill-rule="evenodd">
        <g id="Group" transform="translate(52.000000, 260.000000)">
            <path d="M142.437401,879.049128 C135.515021,882.510318 128.149009,884.240887 120.339144,884.240887 C113.416764,884.240887 107.115718,883.175922 101.435816,881.045959 C89.1885283,876.519787 78.7607403,867.689448 70.1521395,854.554675 C67.9334279,851.35973 63.8066863,845.236178 57.7717908,836.183835 C51.7368953,827.131492 47.8320216,821.362928 46.0570523,818.877971 C42.9508561,813.996806 40.4659364,811.334392 38.6022187,810.89065 L38.6022187,809.559429 L41.2646593,809.559429 C45.7908309,809.559429 49.9619461,808.538837 53.77813,806.497623 C59.54678,803.302678 62.4310618,797.400994 62.4310618,788.792393 C62.4310618,782.491252 60.6561192,777.632347 57.1061807,774.215531 C53.5562422,770.798715 49.2963798,769.090333 44.3264659,769.090333 L34.2091918,769.090333 L34.2091918,846.700475 C34.2091918,849.007935 35.0522895,850.982559 36.7385103,852.624406 C38.4247311,854.266252 40.4215416,855.087163 42.7290016,855.087163 L44.459588,855.087163 L44.459588,856.418384 L3.99049128,856.418384 L3.99049128,855.087163 L5.72107765,855.087163 C7.93978922,855.087163 9.89222612,854.288439 11.5784469,852.690967 C13.2646677,851.093494 14.152139,849.141057 14.2408875,846.833597 L14.2408875,772.950872 C14.152139,770.643412 13.2868545,768.668788 11.6450079,767.026941 C10.0031614,765.385095 8.02853769,764.564184 5.72107765,764.564184 L3.99049128,764.564184 L3.99049128,763.232964 L49.6513471,763.232964 C61.0998988,763.232964 69.9746119,765.851004 76.2757528,771.087163 C81.2456667,775.169593 83.7305864,780.938156 83.7305864,788.393027 C83.7305864,795.847898 81.312227,801.90489 76.4754358,806.564184 C71.6386446,811.223478 66.1141357,813.55309 59.9017433,813.55309 C59.3692525,813.55309 58.7923961,813.508717 58.1711569,813.419968 C61.8098439,815.372434 64.8494331,817.546739 67.2900158,819.942948 C69.7305986,822.339156 71.8605297,824.602208 73.6798732,826.732171 C75.4992167,828.862134 77.0522915,830.748011 78.3391442,832.389857 C79.6259969,834.031704 81.3343792,836.206009 83.4643423,838.912837 C85.5943054,841.619665 87.8129837,844.437386 90.1204437,847.366086 C92.4279038,850.294785 94.9793838,853.290001 97.7749604,856.351823 C100.570537,859.413644 103.676687,862.320113 107.093502,865.071315 C110.510318,867.822518 113.993643,870.08557 117.543582,871.860539 C125.087201,875.676723 133.385058,877.62916 142.437401,877.717908 L142.437401,879.049128 Z M158.345484,844.038035 C158.966723,843.416796 159.632326,843.106181 160.342314,843.106181 C161.229799,843.106181 162.072897,843.860531 162.871633,845.369255 C161.717903,846.966727 160.386696,848.519802 158.877972,850.028526 C157.369248,851.53725 155.572119,852.890644 153.48653,854.088748 C151.400941,855.286852 149.026955,856.240884 146.364501,856.950872 C143.702047,857.660859 140.640271,858.015848 137.179081,858.015848 C133.629143,858.015848 130.256752,857.438992 127.061807,856.285261 C123.866862,855.131531 121.049141,853.356589 118.608558,850.96038 C116.167975,848.564172 114.215539,845.591143 112.751189,842.041204 C111.286839,838.491266 110.554675,834.320151 110.554675,829.527734 C110.554675,825.001562 111.41996,820.830447 113.150555,817.014263 C114.88115,813.198079 117.122015,809.936622 119.873217,807.229794 C122.62442,804.522966 125.664009,802.415221 128.992076,800.906498 C132.320144,799.397774 135.537227,798.643423 138.643423,798.643423 C146.897031,798.643423 152.909649,801.039596 156.681458,805.832013 C160.453268,810.62443 162.339145,816.881102 162.339145,824.602219 C162.339145,825.134709 162.072903,825.400951 161.540412,825.400951 L122.935024,827.131537 C122.935024,830.592727 123.423133,833.787624 124.399366,836.716323 C125.3756,839.645023 126.75118,842.174316 128.526149,844.304279 C130.301119,846.434242 132.453237,848.098251 134.982568,849.296355 C137.511899,850.494459 140.373994,851.093502 143.568939,851.093502 C146.408889,851.093502 149.137864,850.427899 151.755943,849.096672 C154.374023,847.765445 156.570514,846.07925 158.345484,844.038035 Z M136.779715,803.435816 C132.342292,803.435816 128.881154,805.166385 126.396197,808.627575 C123.91124,812.088765 122.66878,816.614869 122.66878,822.206022 L147.828843,821.007924 C149.16007,821.007924 149.825674,820.431068 149.825674,819.277338 C149.825674,817.591117 149.559432,815.816174 149.026942,813.952456 C148.494451,812.088739 147.695727,810.380356 146.630745,808.827258 C145.565764,807.27416 144.21237,805.987327 142.570523,804.966719 C140.928677,803.946112 138.998427,803.435816 136.779715,803.435816 Z M208.865294,803.70206 C204.694116,803.70206 201.299538,805.521376 198.681459,809.160063 C196.063379,812.79875 194.754359,817.724216 194.754359,823.936609 C194.754359,832.545209 196.684609,839.245618 200.545167,844.038035 C204.405725,848.830452 209.530872,851.226624 215.920761,851.226624 C218.760712,851.226624 221.134698,850.782889 223.04279,849.895404 C224.950882,849.007919 226.614891,848.120448 228.034866,847.232964 C228.301111,847.055467 228.611726,846.855786 228.96672,846.633914 C229.321714,846.412043 229.676703,846.301109 230.031696,846.301109 C230.475439,846.301109 230.963548,846.611724 231.496039,847.232964 C232.028529,847.854203 232.383518,848.342312 232.561015,848.697306 C231.67353,849.762287 230.564191,850.827253 229.232964,851.892235 C227.901737,852.957216 226.304289,853.955621 224.440571,854.88748 C222.576853,855.819339 220.380362,856.57369 217.851031,857.150555 C215.3217,857.72742 212.459605,858.015848 209.26466,858.015848 C205.625973,858.015848 202.187022,857.416805 198.947703,856.2187 C195.708384,855.020596 192.868476,853.223467 190.427893,850.827258 C187.98731,848.43105 186.05706,845.435834 184.637085,841.841521 C183.217109,838.247209 182.507132,834.053907 182.507132,829.26149 C182.507132,824.735318 183.372417,820.58639 185.103012,816.81458 C186.833607,813.04277 189.052285,809.825687 191.759113,807.163233 C194.465941,804.500779 197.483344,802.415221 200.811411,800.906498 C204.139478,799.397774 207.400936,798.643423 210.59588,798.643423 C213.879573,798.643423 216.852602,798.998412 219.515056,799.708399 C222.17751,800.418387 224.440562,801.350232 226.30428,802.503962 C228.167997,803.657692 229.610138,805.011086 230.630746,806.564184 C231.651353,808.117282 232.161649,809.736917 232.161649,811.423138 C232.161649,811.955629 231.717913,812.399364 230.830429,812.754358 C229.942944,813.109352 228.944539,813.39778 227.835183,813.619651 C226.725827,813.841523 225.660862,813.99683 224.640254,814.085578 C223.619647,814.174327 223.020604,814.2187 222.843107,814.2187 C221.689377,814.2187 220.779719,813.664031 220.114105,812.554675 C219.448492,811.445319 218.716328,810.247233 217.917592,808.96038 C217.118856,807.673528 216.031703,806.475441 214.656102,805.366086 C213.280501,804.25673 211.350251,803.70206 208.865294,803.70206 Z M288.405706,798.776545 C290.979412,798.776545 292.887475,799.397775 294.129953,800.640254 C295.372432,801.882732 295.993662,803.258313 295.993662,804.767036 C295.993662,805.299527 295.904915,805.787636 295.727418,806.231379 C295.549921,806.675121 295.128372,807.141044 294.462759,807.62916 C293.797145,808.117277 292.8653,808.694133 291.667196,809.359746 C290.469092,810.02536 288.805083,810.846271 286.67512,811.822504 C285.876384,810.846271 284.922352,810.003173 283.812996,809.293185 C282.70364,808.583198 281.483367,808.228209 280.15214,808.228209 C278.643417,808.228209 277.267836,808.649758 276.025358,809.492868 C274.782879,810.335979 273.717914,811.489692 272.830429,812.954041 C271.942944,814.418391 271.255154,816.104586 270.767037,818.012678 C270.278921,819.92077 270.034866,821.895394 270.034866,823.936609 L270.034866,846.833597 C270.034866,848.786064 271.055458,850.228205 273.096673,851.160063 C275.137888,852.091922 278.066543,852.824086 281.882727,853.356577 C282.770211,853.534074 283.213947,854.066557 283.213947,854.954041 C283.213947,855.486532 283.1252,856.196509 282.947703,857.083994 C281.97147,856.995245 280.751197,856.928685 279.286847,856.884311 C277.822498,856.839936 276.29161,856.773376 274.694137,856.684628 C273.096665,856.595879 271.454843,856.529319 269.768622,856.484945 C268.082401,856.44057 266.529327,856.418384 265.109351,856.418384 C262.713143,856.418384 260.228223,856.484944 257.654518,856.618067 C255.080812,856.751189 252.640266,856.906497 250.332806,857.083994 C250.155309,856.196509 250.066562,855.486532 250.066562,854.954041 C250.066562,854.066557 250.465924,853.534074 251.26466,853.356577 C253.305875,853.001583 255.103004,852.4691 256.656102,851.759113 C258.209201,851.049125 258.985738,850.028533 258.985738,848.697306 L258.985738,814.884311 C258.985738,813.020593 258.874804,811.467518 258.652933,810.22504 C258.431062,808.982561 258.053886,807.984156 257.521396,807.229794 C256.988905,806.475432 256.212367,805.920762 255.19176,805.565769 C254.171153,805.210775 252.862133,804.944533 251.26466,804.767036 C250.11093,804.58954 249.534074,804.012683 249.534074,803.03645 C249.534074,802.503959 249.622821,801.882729 249.800318,801.172742 C250.954048,801.172742 252.573683,801.106181 254.659272,800.973059 C256.744861,800.839936 258.453243,800.684628 259.78447,800.507132 C261.736936,800.152138 263.445319,799.774962 264.909668,799.375594 C266.374018,798.976226 267.46117,798.776545 268.171158,798.776545 C269.413636,798.776545 270.034866,799.442149 270.034866,800.773376 L270.034866,809.692552 C272.874817,806.586355 275.736912,803.990502 278.621237,801.904913 C281.505562,799.819324 284.767019,798.776545 288.405706,798.776545 Z M318.291602,812.488114 C318.291602,809.559415 317.870053,807.584791 317.026943,806.564184 C316.183832,805.543577 314.253582,804.90016 311.236134,804.633914 C310.082404,804.456417 309.505548,803.879561 309.505548,802.903328 C309.505548,802.370837 309.594295,801.749607 309.771792,801.03962 C310.925522,801.03962 312.45641,800.973059 314.364502,800.839937 C316.272594,800.706814 317.892229,800.507133 319.223456,800.240887 C321.175922,799.974642 322.884305,799.64184 324.348654,799.242472 C325.813004,798.843104 326.900156,798.643423 327.610144,798.643423 C328.852622,798.643423 329.473852,799.309027 329.473852,800.640254 L329.473852,833.920761 C329.473852,836.139472 329.606973,838.180656 329.873218,840.044374 C330.139464,841.908092 330.627573,843.527727 331.337561,844.903328 C332.047548,846.278929 333.06814,847.343895 334.399367,848.098257 C335.730594,848.852619 337.41679,849.229794 339.458005,849.229794 C341.676716,849.229794 343.851021,848.852619 345.980984,848.098257 C348.110947,847.343895 349.996824,846.234556 351.63867,844.770206 C353.280517,843.305856 354.589537,841.508727 355.56577,839.378764 C356.542003,837.248801 357.030112,834.763881 357.030112,831.92393 L357.030112,812.488114 C357.030112,809.648163 356.608563,807.695726 355.765453,806.630745 C354.922343,805.565763 352.947719,804.90016 349.841523,804.633914 C348.687793,804.456417 348.110936,803.879561 348.110936,802.903328 C348.110936,802.370837 348.199684,801.749607 348.37718,801.03962 C349.53091,801.03962 351.061798,800.973059 352.96989,800.839937 C354.877982,800.706814 356.541991,800.507133 357.961966,800.240887 C359.914433,799.974642 361.600628,799.64184 363.020604,799.242472 C364.440579,798.843104 365.505545,798.643423 366.215532,798.643423 C367.458011,798.643423 368.079241,799.309027 368.079241,800.640254 L368.079241,843.904913 C368.079241,845.413637 368.167988,846.63391 368.345485,847.565769 C368.522982,848.497627 368.87797,849.251978 369.410461,849.828843 C369.942952,850.405708 370.675116,850.849444 371.606974,851.160063 C372.538833,851.470683 373.759106,851.670364 375.26783,851.759113 C376.42156,851.936609 376.998417,852.513466 376.998417,853.489699 C376.998417,854.02219 376.909669,854.64342 376.732173,855.353407 C375.045952,855.353407 373.271009,855.486528 371.407291,855.752773 C369.543574,856.019019 367.768631,856.28526 366.08241,856.551506 C364.396189,856.817751 362.909675,857.083992 361.622822,857.350238 C360.33597,857.616483 359.426311,857.749604 358.893821,857.749604 C357.651342,857.749604 357.030112,857.084 357.030112,855.752773 L357.030112,844.703645 C356.763867,844.96989 356.009516,845.812988 354.767038,847.232964 C353.524559,848.652939 351.904924,850.16164 349.908084,851.759113 C347.911243,853.356585 345.603818,854.798726 342.985738,856.085578 C340.367659,857.372431 337.549937,858.015848 334.532489,858.015848 C329.118833,858.015848 325.058652,856.462773 322.351824,853.356577 C319.644996,850.250381 318.291602,845.857398 318.291602,840.177496 L318.291602,812.488114 Z M409.812997,856.418384 C408.304273,856.418384 406.773385,856.44057 405.220287,856.484945 C403.667189,856.529319 402.225048,856.595879 400.893821,856.684628 C399.562594,856.773376 398.408881,856.862123 397.432648,856.950872 C396.456415,857.03962 395.835185,857.083994 395.56894,857.083994 C395.56894,856.995245 395.524566,856.68463 395.435818,856.152139 C395.347069,855.619649 395.302696,855.220287 395.302696,854.954041 C395.302696,854.066557 395.702058,853.534074 396.500794,853.356577 C398.808254,852.912835 400.671944,852.380352 402.091919,851.759113 C403.511895,851.137873 404.221872,850.117281 404.221872,848.697306 L404.221872,812.488114 C404.221872,809.82566 403.755949,807.917597 402.82409,806.763867 C401.892232,805.610137 399.873234,804.90016 396.767038,804.633914 C395.613308,804.456417 395.036452,803.835188 395.036452,802.770206 C395.036452,802.326464 395.125199,801.749607 395.302696,801.03962 C396.456426,801.03962 398.076061,800.973059 400.16165,800.839937 C402.247239,800.706814 403.955621,800.551506 405.286848,800.37401 C407.328063,800.019016 409.147379,799.64184 410.744851,799.242472 C412.342323,798.843104 413.496036,798.643423 414.206024,798.643423 C415.448502,798.643423 416.069732,799.309027 416.069732,800.640254 C416.069732,801.882732 415.936612,803.369246 415.670366,805.099842 C415.404121,806.830437 415.271,809.115675 415.271,811.955626 L415.271,848.697306 C415.271,850.117281 415.95879,851.137873 417.334392,851.759113 C418.709993,852.380352 420.640243,852.912835 423.1252,853.356577 C423.835187,853.534074 424.190176,854.066557 424.190176,854.954041 C424.190176,855.220287 424.167989,855.619649 424.123615,856.152139 C424.079241,856.68463 424.01268,856.995245 423.923932,857.083994 C423.657687,857.083994 423.058643,857.03962 422.126785,856.950872 C421.194926,856.862123 420.0634,856.773376 418.732173,856.684628 C417.400946,856.595879 415.958805,856.529319 414.405707,856.484945 C412.852609,856.44057 411.321721,856.418384 409.812997,856.418384 Z M402.091919,776.412044 C402.091919,774.282081 402.824083,772.440578 404.288433,770.88748 C405.752782,769.334382 407.594285,768.557845 409.812997,768.557845 C411.94296,768.557845 413.717903,769.334382 415.137878,770.88748 C416.557853,772.440578 417.267831,774.282081 417.267831,776.412044 C417.267831,778.719504 416.557853,780.583194 415.137878,782.00317 C413.717903,783.423145 411.94296,784.133122 409.812997,784.133122 C407.594285,784.133122 405.752782,783.423145 404.288433,782.00317 C402.824083,780.583194 402.091919,778.719504 402.091919,776.412044 Z M473.378766,848.564184 C473.822508,848.120442 474.199684,847.8542 474.510303,847.765452 C474.820923,847.676703 475.064977,847.63233 475.242474,847.63233 C476.04121,847.63233 476.751188,848.209186 477.372427,849.362916 C475.064967,851.936621 472.580047,854.022179 469.917593,855.619651 C467.255139,857.217124 464.415231,858.015848 461.397783,858.015848 C459.622814,858.015848 457.936619,857.816167 456.339146,857.416799 C454.741674,857.017431 453.366093,856.240893 452.212363,855.087163 C451.058633,853.933433 450.148975,852.358172 449.483362,850.361331 C448.817748,848.364491 448.484947,845.768637 448.484947,842.573693 L448.484947,805.832013 L440.497625,805.832013 L440.497625,804.36767 C440.497625,803.746431 440.608559,803.169575 440.83043,802.637084 C441.052301,802.104593 441.518224,801.838352 442.228211,801.838352 C444.62442,801.838352 446.576857,801.217122 448.08558,799.974643 C449.594304,798.732165 450.836764,797.134717 451.812997,795.18225 C452.877979,793.052287 453.809824,791.055477 454.60856,789.191759 C455.407296,787.328041 456.294767,786.396197 457.271,786.396197 L459.667197,786.396197 L459.667197,800.240887 L475.242474,800.240887 C475.242474,802.104605 475.042793,803.502373 474.643425,804.434231 C474.244057,805.36609 473.511893,805.832013 472.446912,805.832013 L459.667197,805.832013 L459.667197,838.846276 C459.667197,841.686227 459.800318,843.971465 460.066563,845.70206 C460.332808,847.432655 460.732171,848.763862 461.264661,849.695721 C461.797152,850.62758 462.418382,851.226623 463.12837,851.492868 C463.838357,851.759114 464.637082,851.892235 465.524566,851.892235 C467.03329,851.892235 468.431057,851.559433 469.71791,850.893819 C471.004763,850.228206 472.225036,849.451668 473.378766,848.564184 Z M549.72425,812.088748 C550.079243,811.822503 550.877968,810.979405 552.120446,809.559429 C553.362925,808.139454 554.98256,806.630753 556.9794,805.033281 C558.976241,803.435808 561.283666,801.971481 563.901746,800.640254 C566.519825,799.309027 569.337547,798.643423 572.354994,798.643423 C577.679902,798.643423 581.451655,800.218685 583.670367,803.369255 C585.889078,806.519826 586.998418,810.890622 586.998418,816.481775 L586.998418,848.830428 C586.998418,850.161655 587.797142,851.16006 589.394614,851.825674 C590.992086,852.491287 592.767029,853.001583 594.719495,853.356577 C595.518231,853.534074 595.917593,854.066557 595.917593,854.954041 C595.917593,855.486532 595.828846,856.196509 595.651349,857.083994 C593.343889,856.906497 591.080838,856.751189 588.862126,856.618067 C586.643414,856.484944 584.247242,856.418384 581.673536,856.418384 C579.366076,856.418384 577.014277,856.484944 574.618069,856.618067 C572.22186,856.751189 569.914435,856.906497 567.695723,857.083994 C567.518227,856.196509 567.429479,855.486532 567.429479,854.954041 C567.429479,854.066557 567.828841,853.534074 568.627578,853.356577 C569.426314,853.267828 570.247225,853.090334 571.090335,852.824089 C571.933446,852.557843 572.709983,852.247228 573.419971,851.892235 C574.129958,851.537241 574.729002,851.115692 575.217118,850.627575 C575.705235,850.139459 575.949289,849.540416 575.949289,848.830428 L575.949289,821.40729 C575.949289,815.904885 575.283686,812.199693 573.952459,810.291601 C572.621232,808.383509 570.446927,807.429477 567.429479,807.429477 C565.122019,807.429477 562.925528,807.806652 560.839939,808.561014 C558.75435,809.315376 556.912847,810.424715 555.315375,811.889065 C553.717902,813.353415 552.431069,815.150544 551.454836,817.280507 C550.478603,819.41047 549.990494,821.851016 549.990494,824.602219 L549.990494,848.830428 C549.990494,850.161655 550.744844,851.16006 552.253568,851.825674 C553.762292,852.491287 555.448488,853.001583 557.312205,853.356577 C558.110941,853.534074 558.510303,854.066557 558.510303,854.954041 C558.510303,855.486532 558.421556,856.196509 558.244059,857.083994 C555.936599,856.906497 553.695734,856.751189 551.521397,856.618067 C549.34706,856.484944 547.061821,856.418384 544.665613,856.418384 C542.269404,856.418384 539.895418,856.484944 537.543584,856.618067 C535.19175,856.751189 532.862138,856.906497 530.554677,857.083994 C530.377181,856.196509 530.288433,855.486532 530.288433,854.954041 C530.288433,854.066557 530.687796,853.534074 531.486532,853.356577 C533.084004,853.090331 534.703639,852.624409 536.345486,851.958796 C537.987332,851.293182 538.808243,850.250403 538.808243,848.830428 L538.808243,821.40729 C538.808243,815.904885 538.164827,812.199693 536.877974,810.291601 C535.591121,808.383509 533.439003,807.429477 530.421555,807.429477 C528.114095,807.429477 525.917604,807.806652 523.832015,808.561014 C521.746426,809.315376 519.882736,810.424715 518.24089,811.889065 C516.599043,813.353415 515.290023,815.150544 514.31379,817.280507 C513.337557,819.41047 512.849448,821.851016 512.849448,824.602219 L512.849448,848.830428 C512.849448,850.161655 513.625985,851.16006 515.179083,851.825674 C516.732181,852.491287 518.39619,853.001583 520.171159,853.356577 C520.969895,853.534074 521.369258,854.066557 521.369258,854.954041 C521.369258,855.486532 521.28051,856.196509 521.103013,857.083994 C518.795553,856.906497 516.532502,856.751189 514.31379,856.618067 C512.095078,856.484944 509.743279,856.418384 507.258322,856.418384 C504.684617,856.418384 502.244071,856.484944 499.936611,856.618067 C497.629151,856.751189 495.366099,856.906497 493.147387,857.083994 C492.969891,856.196509 492.881143,855.486532 492.881143,854.954041 C492.881143,854.066557 493.280506,853.534074 494.079242,853.356577 C496.031708,853.001583 497.80665,852.491287 499.404123,851.825674 C501.001595,851.16006 501.800319,850.117281 501.800319,848.697306 L501.800319,812.488114 C501.800319,809.82566 501.334397,807.917597 500.402538,806.763867 C499.470679,805.610137 497.451682,804.90016 494.345486,804.633914 C493.191756,804.456417 492.614899,803.835188 492.614899,802.770206 C492.614899,802.326464 492.703646,801.749607 492.881143,801.03962 C494.034873,801.03962 495.654509,800.973059 497.740097,800.839937 C499.825686,800.706814 501.534069,800.551506 502.865296,800.37401 C504.90651,800.019016 506.725826,799.64184 508.323299,799.242472 C509.920771,798.843104 511.074484,798.643423 511.784471,798.643423 C513.02695,798.643423 513.64818,799.309027 513.64818,800.640254 C513.64818,801.882732 513.515059,803.369246 513.248814,805.099842 C512.982568,806.830437 512.849448,809.115675 512.849448,811.955626 C513.115693,811.689381 513.870044,810.846283 515.112522,809.426307 C516.355001,808.006332 517.974636,806.497631 519.971476,804.900158 C521.968317,803.302686 524.253555,801.860545 526.827261,800.573693 C529.400966,799.28684 532.240874,798.643423 535.347071,798.643423 C539.961991,798.643423 543.400942,799.819323 545.664028,802.171157 C547.927114,804.522991 549.280507,807.828822 549.72425,812.088748 Z M662.278925,844.038035 C662.900164,843.416796 663.565768,843.106181 664.275755,843.106181 C665.16324,843.106181 666.006338,843.860531 666.805074,845.369255 C665.651344,846.966727 664.320137,848.519802 662.811413,850.028526 C661.302689,851.53725 659.50556,852.890644 657.419971,854.088748 C655.334382,855.286852 652.960396,856.240884 650.297942,856.950872 C647.635489,857.660859 644.573713,858.015848 641.112523,858.015848 C637.562584,858.015848 634.190193,857.438992 630.995248,856.285261 C627.800304,855.131531 624.982582,853.356589 622.542,850.96038 C620.101417,848.564172 618.14898,845.591143 616.68463,842.041204 C615.220281,838.491266 614.488117,834.320151 614.488117,829.527734 C614.488117,825.001562 615.353401,820.830447 617.083996,817.014263 C618.814591,813.198079 621.055456,809.936622 623.806659,807.229794 C626.557861,804.522966 629.59745,802.415221 632.925518,800.906498 C636.253585,799.397774 639.470669,798.643423 642.576865,798.643423 C650.830472,798.643423 656.84309,801.039596 660.6149,805.832013 C664.386709,810.62443 666.272586,816.881102 666.272586,824.602219 C666.272586,825.134709 666.006345,825.400951 665.473854,825.400951 L626.868465,827.131537 C626.868465,830.592727 627.356575,833.787624 628.332808,836.716323 C629.309041,839.645023 630.684621,842.174316 632.459591,844.304279 C634.23456,846.434242 636.386678,848.098251 638.916009,849.296355 C641.44534,850.494459 644.307435,851.093502 647.50238,851.093502 C650.342331,851.093502 653.071305,850.427899 655.689385,849.096672 C658.307464,847.765445 660.503956,846.07925 662.278925,844.038035 Z M640.713156,803.435816 C636.275733,803.435816 632.814595,805.166385 630.329638,808.627575 C627.844681,812.088765 626.602221,816.614869 626.602221,822.206022 L651.762285,821.007924 C653.093512,821.007924 653.759115,820.431068 653.759115,819.277338 C653.759115,817.591117 653.492874,815.816174 652.960383,813.952456 C652.427892,812.088739 651.629168,810.380356 650.564187,808.827258 C649.499205,807.27416 648.145811,805.987327 646.503965,804.966719 C644.862118,803.946112 642.931868,803.435816 640.713156,803.435816 Z M744.6149,848.830428 C744.6149,850.161655 745.413624,851.16006 747.011097,851.825674 C748.608569,852.491287 750.383512,853.001583 752.335978,853.356577 C753.134714,853.534074 753.534076,854.066557 753.534076,854.954041 C753.534076,855.486532 753.445329,856.196509 753.267832,857.083994 C750.960372,856.906497 748.69732,856.751189 746.478608,856.618067 C744.259897,856.484944 741.863724,856.418384 739.290019,856.418384 C736.89381,856.418384 734.519825,856.484944 732.16799,856.618067 C729.816156,856.751189 727.486544,856.906497 725.179084,857.083994 C725.001587,856.196509 724.91284,855.486532 724.91284,854.954041 C724.91284,854.066557 725.312202,853.534074 726.110938,853.356577 C727.974656,853.001583 729.660851,852.491287 731.169575,851.825674 C732.678299,851.16006 733.43265,850.161655 733.43265,848.830428 L733.43265,822.73851 C733.43265,820.519799 733.299529,818.478615 733.033284,816.614897 C732.767038,814.751179 732.256742,813.131544 731.50238,811.755943 C730.748018,810.380342 729.727426,809.315376 728.440574,808.561014 C727.153721,807.806652 725.489712,807.429477 723.448498,807.429477 C721.229786,807.429477 719.055481,807.806652 716.925518,808.561014 C714.795555,809.315376 712.909678,810.424715 711.267832,811.889065 C709.625985,813.353415 708.316965,815.150544 707.340732,817.280507 C706.364499,819.41047 705.87639,821.851016 705.87639,824.602219 L705.87639,848.830428 C705.87639,850.161655 706.652927,851.16006 708.206025,851.825674 C709.759123,852.491287 711.423132,853.001583 713.198101,853.356577 C713.996837,853.534074 714.3962,854.066557 714.3962,854.954041 C714.3962,855.486532 714.307452,856.196509 714.129956,857.083994 C711.822495,856.906497 709.559444,856.751189 707.340732,856.618067 C705.12202,856.484944 702.770221,856.418384 700.285265,856.418384 C697.711559,856.418384 695.271013,856.484944 692.963553,856.618067 C690.656093,856.751189 688.393041,856.906497 686.17433,857.083994 C685.996833,856.196509 685.908085,855.486532 685.908085,854.954041 C685.908085,854.066557 686.307448,853.534074 687.106184,853.356577 C689.05865,853.001583 690.833593,852.491287 692.431065,851.825674 C694.028537,851.16006 694.827261,850.117281 694.827261,848.697306 L694.827261,812.488114 C694.827261,809.82566 694.361339,807.917597 693.42948,806.763867 C692.497621,805.610137 690.478624,804.90016 687.372428,804.633914 C686.218698,804.456417 685.641841,803.835188 685.641841,802.770206 C685.641841,802.326464 685.730589,801.749607 685.908085,801.03962 C687.061815,801.03962 688.681451,800.973059 690.767039,800.839937 C692.852628,800.706814 694.561011,800.551506 695.892238,800.37401 C697.933452,800.019016 699.752768,799.64184 701.350241,799.242472 C702.947713,798.843104 704.101426,798.643423 704.811414,798.643423 C706.053892,798.643423 706.675122,799.309027 706.675122,800.640254 C706.675122,801.882732 706.542001,803.369246 706.275756,805.099842 C706.00951,806.830437 705.87639,809.115675 705.87639,811.955626 C709.692574,807.6957 713.353393,804.412056 716.858957,802.104596 C720.364521,799.797136 724.202835,798.643423 728.374013,798.643423 C733.787669,798.643423 737.84785,800.218685 740.554678,803.369255 C743.261506,806.519826 744.6149,810.890622 744.6149,816.481775 L744.6149,848.830428 Z M801.524568,848.564184 C801.96831,848.120442 802.345485,847.8542 802.656105,847.765452 C802.966724,847.676703 803.210779,847.63233 803.388276,847.63233 C804.187012,847.63233 804.896989,848.209186 805.518228,849.362916 C803.210768,851.936621 800.725849,854.022179 798.063395,855.619651 C795.400941,857.217124 792.561033,858.015848 789.543585,858.015848 C787.768616,858.015848 786.08242,857.816167 784.484948,857.416799 C782.887476,857.017431 781.511895,856.240893 780.358165,855.087163 C779.204435,853.933433 778.294777,852.358172 777.629163,850.361331 C776.96355,848.364491 776.630748,845.768637 776.630748,842.573693 L776.630748,805.832013 L768.643427,805.832013 L768.643427,804.36767 C768.643427,803.746431 768.75436,803.169575 768.976232,802.637084 C769.198103,802.104593 769.664025,801.838352 770.374013,801.838352 C772.770221,801.838352 774.722658,801.217122 776.231382,799.974643 C777.740106,798.732165 778.982566,797.134717 779.958799,795.18225 C781.023781,793.052287 781.955625,791.055477 782.754362,789.191759 C783.553098,787.328041 784.440569,786.396197 785.416802,786.396197 L787.812999,786.396197 L787.812999,800.240887 L803.388276,800.240887 C803.388276,802.104605 803.188595,803.502373 802.789227,804.434231 C802.389859,805.36609 801.657695,805.832013 800.592713,805.832013 L787.812999,805.832013 L787.812999,838.846276 C787.812999,841.686227 787.946119,843.971465 788.212365,845.70206 C788.47861,847.432655 788.877972,848.763862 789.410463,849.695721 C789.942954,850.62758 790.564184,851.226623 791.274171,851.492868 C791.984159,851.759114 792.782883,851.892235 793.670368,851.892235 C795.179092,851.892235 796.576859,851.559433 797.863712,850.893819 C799.150564,850.228206 800.370838,849.451668 801.524568,848.564184 Z M10.5134707,928.881141 C6.96353217,934.561043 5.18858954,940.37398 5.18858954,946.320127 C5.18858954,952.798765 7.54038853,958.700449 12.2440571,964.025357 C14.8177625,967.042804 18.0792196,969.394603 22.0285261,971.080824 C25.9778327,972.767045 30.3042554,973.610143 35.0079239,973.610143 C39.7115925,973.610143 43.9270812,972.722671 47.6545166,970.947702 C55.1093875,967.309015 58.836767,961.362957 58.836767,953.10935 C58.836767,950.003154 57.7939882,946.71951 55.7083994,943.25832 C53.6228105,939.79713 50.4944741,936.69098 46.3232964,933.939778 L23.6925515,918.763867 C14.9064537,913.261462 10.5134707,906.161692 10.5134707,897.464342 C10.5134707,896.576858 10.5578442,895.689386 10.6465927,894.801902 C11.1790835,887.96827 13.9080578,882.399388 18.8335975,878.095087 C23.7591371,873.790787 30.3486117,871.638669 38.6022187,871.638669 C43.6608811,871.638669 49.7844332,872.082404 56.9730586,872.969889 L65.2266244,872.969889 L63.496038,892.538827 L62.2979398,892.538827 C62.2091913,887.923907 60.4342487,884.218714 56.9730586,881.423138 C53.5118686,878.627561 48.9413913,877.229794 43.2614897,877.229794 C36.3391096,877.229794 31.3248967,879.315352 28.2187005,883.486529 C26.7099766,885.616492 25.955626,887.923918 25.955626,890.408875 C25.955626,892.893832 26.7099766,895.001576 28.2187005,896.732171 C29.7274243,898.462766 32.1235969,900.348643 35.40729,902.389857 L60.3011094,918.630745 C65.3597717,921.914438 69.3090191,925.774938 72.1489699,930.212361 C75.5214115,935.448521 77.207607,940.817722 77.207607,946.320127 C77.207607,949.870065 76.4754431,953.619632 75.0110935,957.568938 C73.5467439,961.518245 71.1505713,965.179064 67.822504,968.551506 C64.4944366,971.923947 60.2123875,974.675108 54.9762282,976.805071 C49.7400689,978.935034 43.9493186,980 37.6038035,980 C31.2582884,980 25.5119116,978.890661 20.3645008,976.671949 C10.8684153,972.678268 4.83361033,965.711619 2.25990491,955.771791 C1.72741414,953.641828 1.46117274,951.423149 1.46117274,949.115689 C1.46117274,941.660818 4.07921312,934.605422 9.31537242,927.949287 L10.5134707,928.881141 Z M95.9112523,938.599049 C95.9112523,934.51662 96.6877897,930.65612 98.2408878,927.017433 C99.7939859,923.378746 101.90173,920.228222 104.564184,917.565769 C107.226638,914.903315 110.354974,912.79557 113.949287,911.242472 C117.5436,909.689374 121.426287,908.912837 125.597465,908.912837 C129.946139,908.912837 133.93976,909.645001 137.578447,911.10935 C141.217134,912.5737 144.345471,914.592697 146.96355,917.166403 C149.58163,919.740108 151.622814,922.868444 153.087164,926.551506 C154.551513,930.234567 155.283677,934.250374 155.283677,938.599049 C155.283677,942.770227 154.50714,946.652914 152.954042,950.247227 C151.400943,953.841539 149.293199,956.969876 146.630745,959.63233 C143.968291,962.294783 140.839955,964.402528 137.245642,965.955626 C133.651329,967.508724 129.768642,968.285261 125.597465,968.285261 C121.24879,968.285261 117.255169,967.553098 113.616482,966.088748 C109.977795,964.624398 106.849459,962.605401 104.231379,960.031696 C101.613299,957.45799 99.5721154,954.351841 98.1077658,950.713154 C96.6434162,947.074467 95.9112523,943.036472 95.9112523,938.599049 Z M108.424723,934.206022 C108.424723,937.489715 108.779712,940.862106 109.489699,944.323296 C110.199687,947.784486 111.286839,950.912823 112.751189,953.708399 C114.215539,956.503976 116.101415,958.811401 118.408875,960.630745 C120.716335,962.450088 123.51187,963.359746 126.795563,963.359746 C131.854225,963.359746 135.781286,961.584804 138.576862,958.034865 C141.372439,954.484927 142.770206,949.914449 142.770206,944.323296 C142.770206,941.039603 142.437405,937.600652 141.771791,934.006339 C141.106178,930.412026 140.041212,927.128383 138.576862,924.155309 C137.112513,921.182236 135.204449,918.719503 132.852615,916.767036 C130.500781,914.81457 127.594312,913.838352 124.133122,913.838352 C119.429454,913.838352 115.635514,915.457987 112.751189,918.697306 C109.866864,921.936625 108.424723,927.106145 108.424723,934.206022 Z M203.806657,967.353407 C201.499197,967.17591 199.147398,967.020603 196.751189,966.88748 C194.354981,966.754357 191.958808,966.687797 189.5626,966.687797 C187.166391,966.687797 184.703658,966.754357 182.174327,966.88748 C179.644996,967.020603 177.27101,967.17591 175.052299,967.353407 C174.874802,966.465923 174.786055,965.755946 174.786055,965.223455 C174.786055,964.33597 175.185417,963.803487 175.984153,963.62599 C177.936619,963.270997 179.755935,962.760701 181.442156,962.095087 C183.128377,961.429474 183.971475,960.386695 183.971475,958.966719 L183.971475,887.347068 C183.971475,884.507117 183.416805,882.576867 182.307449,881.55626 C181.198093,880.535653 179.090349,879.892236 175.984153,879.62599 C174.830423,879.448494 174.253566,878.827264 174.253566,877.762282 C174.253566,877.229791 174.342314,876.608561 174.519811,875.898574 C175.673541,875.898574 177.270989,875.832013 179.312204,875.698891 C181.353418,875.565768 183.217108,875.41046 184.903329,875.232964 C186.944543,874.966718 188.76386,874.61173 190.361332,874.167987 C191.958804,873.724245 193.112517,873.502377 193.822505,873.502377 C194.621241,873.502377 195.153724,873.679871 195.419969,874.034865 C195.686214,874.389859 195.819335,874.877968 195.819335,875.499208 C195.819335,877.007931 195.686214,878.760687 195.419969,880.757528 C195.153724,882.754368 195.020603,885.08398 195.020603,887.746434 L195.020603,958.966719 C195.020603,960.386695 195.841514,961.429474 197.48336,962.095087 C199.125207,962.760701 200.96671,963.270997 203.007925,963.62599 C203.717912,963.803487 204.072901,964.33597 204.072901,965.223455 C204.072901,965.755946 203.984154,966.465923 203.806657,967.353407 Z M229.698892,922.757528 C229.698892,919.828828 229.277343,917.854205 228.434232,916.833597 C227.591122,915.81299 225.660872,915.169573 222.643424,914.903328 C221.489694,914.725831 220.912838,914.148975 220.912838,913.172742 C220.912838,912.640251 221.001585,912.019021 221.179082,911.309033 C222.332812,911.309033 223.8637,911.242473 225.771792,911.10935 C227.679884,910.976228 229.299519,910.776546 230.630746,910.510301 C232.583212,910.244056 234.291594,909.911254 235.755944,909.511886 C237.220294,909.112518 238.307446,908.912837 239.017434,908.912837 C240.259912,908.912837 240.881142,909.57844 240.881142,910.909667 L240.881142,944.190174 C240.881142,946.408886 241.014263,948.45007 241.280508,950.313788 C241.546754,952.177505 242.034863,953.79714 242.74485,955.172742 C243.454838,956.548343 244.47543,957.613308 245.806657,958.36767 C247.137884,959.122032 248.82408,959.499208 250.865294,959.499208 C253.084006,959.499208 255.25831,959.122032 257.388274,958.36767 C259.518237,957.613308 261.404113,956.503969 263.04596,955.03962 C264.687806,953.57527 265.996827,951.778141 266.97306,949.648177 C267.949293,947.518214 268.437402,945.033295 268.437402,942.193344 L268.437402,922.757528 C268.437402,919.917577 268.015853,917.96514 267.172743,916.900158 C266.329632,915.835177 264.355009,915.169573 261.248812,914.903328 C260.095082,914.725831 259.518226,914.148975 259.518226,913.172742 C259.518226,912.640251 259.606973,912.019021 259.78447,911.309033 C260.9382,911.309033 262.469088,911.242473 264.37718,911.10935 C266.285272,910.976228 267.949281,910.776546 269.369256,910.510301 C271.321722,910.244056 273.007918,909.911254 274.427893,909.511886 C275.847869,909.112518 276.912834,908.912837 277.622822,908.912837 C278.8653,908.912837 279.48653,909.57844 279.48653,910.909667 L279.48653,954.174326 C279.48653,955.68305 279.575277,956.903323 279.752774,957.835182 C279.930271,958.767041 280.28526,959.521392 280.817751,960.098257 C281.350241,960.675122 282.082405,961.118857 283.014264,961.429477 C283.946123,961.740097 285.166396,961.939778 286.67512,962.028526 C287.82885,962.206023 288.405706,962.782879 288.405706,963.759112 C288.405706,964.291603 288.316959,964.912833 288.139462,965.622821 C286.453241,965.622821 284.678299,965.755942 282.814581,966.022187 C280.950863,966.288432 279.175921,966.554674 277.4897,966.820919 C275.803479,967.087165 274.316965,967.353406 273.030112,967.619651 C271.743259,967.885897 270.833601,968.019017 270.30111,968.019017 C269.058632,968.019017 268.437402,967.353414 268.437402,966.022187 L268.437402,954.973059 C268.171157,955.239304 267.416806,956.082402 266.174327,957.502377 C264.931849,958.922353 263.312214,960.431054 261.315373,962.028526 C259.318533,963.625998 257.011108,965.068139 254.393028,966.354992 C251.774948,967.641845 248.957227,968.285261 245.939779,968.285261 C240.526123,968.285261 236.465942,966.732187 233.759114,963.62599 C231.052285,960.519794 229.698892,956.126811 229.698892,950.44691 L229.698892,922.757528 Z M337.594296,958.833597 C338.038038,958.389855 338.415214,958.123614 338.725833,958.034865 C339.036453,957.946117 339.280508,957.901743 339.458005,957.901743 C340.256741,957.901743 340.966718,958.4786 341.587957,959.63233 C339.280497,962.206035 336.795577,964.291593 334.133123,965.889065 C331.470669,967.486537 328.630761,968.285261 325.613314,968.285261 C323.838344,968.285261 322.152149,968.08558 320.554676,967.686212 C318.957204,967.286844 317.581624,966.510307 316.427894,965.356577 C315.274164,964.202847 314.364505,962.627585 313.698892,960.630745 C313.033279,958.633904 312.700477,956.038051 312.700477,952.843106 L312.700477,916.101426 L304.713155,916.101426 L304.713155,914.637084 C304.713155,914.015845 304.824089,913.438988 305.04596,912.906498 C305.267831,912.374007 305.733754,912.107765 306.443741,912.107765 C308.83995,912.107765 310.792387,911.486536 312.301111,910.244057 C313.809835,909.001579 315.052294,907.40413 316.028528,905.451664 C317.093509,903.321701 318.025354,901.32489 318.82409,899.461173 C319.622826,897.597455 320.510298,896.66561 321.486531,896.66561 L323.882727,896.66561 L323.882727,910.510301 L339.458005,910.510301 C339.458005,912.374019 339.258323,913.771786 338.858955,914.703645 C338.459587,915.635504 337.727423,916.101426 336.662442,916.101426 L323.882727,916.101426 L323.882727,949.115689 C323.882727,951.95564 324.015848,954.240879 324.282093,955.971474 C324.548339,957.702069 324.947701,959.033276 325.480192,959.965135 C326.012682,960.896994 326.633912,961.496037 327.3439,961.762282 C328.053888,962.028527 328.852612,962.161648 329.740096,962.161648 C331.24882,962.161648 332.646588,961.828846 333.93344,961.163233 C335.220293,960.497619 336.440566,959.721082 337.594296,958.833597 Z M371.606975,966.687797 C370.098251,966.687797 368.567363,966.709984 367.014265,966.754358 C365.461167,966.798732 364.019026,966.865293 362.687799,966.954041 C361.356572,967.04279 360.202859,967.131537 359.226626,967.220285 C358.250393,967.309034 357.629163,967.353407 357.362918,967.353407 C357.362918,967.264659 357.318544,966.954044 357.229796,966.421553 C357.141047,965.889062 357.096674,965.4897 357.096674,965.223455 C357.096674,964.33597 357.496036,963.803487 358.294772,963.62599 C360.602232,963.182248 362.465922,962.649765 363.885897,962.028526 C365.305873,961.407287 366.01585,960.386695 366.01585,958.966719 L366.01585,922.757528 C366.01585,920.095074 365.549927,918.18701 364.618068,917.03328 C363.686209,915.87955 361.667212,915.169573 358.561016,914.903328 C357.407286,914.725831 356.83043,914.104601 356.83043,913.03962 C356.83043,912.595877 356.919177,912.019021 357.096674,911.309033 C358.250404,911.309033 359.870039,911.242473 361.955628,911.10935 C364.041217,910.976228 365.749599,910.82092 367.080826,910.643423 C369.12204,910.288429 370.941357,909.911254 372.538829,909.511886 C374.136301,909.112518 375.290014,908.912837 376.000002,908.912837 C377.24248,908.912837 377.86371,909.57844 377.86371,910.909667 C377.86371,912.152146 377.730589,913.63866 377.464344,915.369255 C377.198099,917.09985 377.064978,919.385089 377.064978,922.22504 L377.064978,958.966719 C377.064978,960.386695 377.752768,961.407287 379.128369,962.028526 C380.503971,962.649765 382.434221,963.182248 384.919178,963.62599 C385.629165,963.803487 385.984154,964.33597 385.984154,965.223455 C385.984154,965.4897 385.961967,965.889062 385.917593,966.421553 C385.873219,966.954044 385.806658,967.264659 385.71791,967.353407 C385.451664,967.353407 384.852621,967.309034 383.920762,967.220285 C382.988904,967.131537 381.857378,967.04279 380.526151,966.954041 C379.194924,966.865293 377.752783,966.798732 376.199685,966.754358 C374.646587,966.709984 373.115699,966.687797 371.606975,966.687797 Z M363.885897,886.681458 C363.885897,884.551495 364.618061,882.709992 366.082411,881.156894 C367.54676,879.603796 369.388263,878.827258 371.606975,878.827258 C373.736938,878.827258 375.51188,879.603796 376.931856,881.156894 C378.351831,882.709992 379.061808,884.551495 379.061808,886.681458 C379.061808,888.988918 378.351831,890.852608 376.931856,892.272583 C375.51188,893.692559 373.736938,894.402536 371.606975,894.402536 C369.388263,894.402536 367.54676,893.692559 366.082411,892.272583 C364.618061,890.852608 363.885897,888.988918 363.885897,886.681458 Z M404.022189,938.599049 C404.022189,934.51662 404.798726,930.65612 406.351825,927.017433 C407.904923,923.378746 410.012667,920.228222 412.675121,917.565769 C415.337575,914.903315 418.465911,912.79557 422.060224,911.242472 C425.654537,909.689374 429.537224,908.912837 433.708401,908.912837 C438.057076,908.912837 442.050697,909.645001 445.689384,911.10935 C449.328071,912.5737 452.456407,914.592697 455.074487,917.166403 C457.692567,919.740108 459.733751,922.868444 461.1981,926.551506 C462.66245,930.234567 463.394614,934.250374 463.394614,938.599049 C463.394614,942.770227 462.618076,946.652914 461.064978,950.247227 C459.51188,953.841539 457.404136,956.969876 454.741682,959.63233 C452.079228,962.294783 448.950892,964.402528 445.356579,965.955626 C441.762266,967.508724 437.879579,968.285261 433.708401,968.285261 C429.359727,968.285261 425.366106,967.553098 421.727419,966.088748 C418.088732,964.624398 414.960395,962.605401 412.342316,960.031696 C409.724236,957.45799 407.683052,954.351841 406.218703,950.713154 C404.754353,947.074467 404.022189,943.036472 404.022189,938.599049 Z M416.53566,934.206022 C416.53566,937.489715 416.890648,940.862106 417.600636,944.323296 C418.310624,947.784486 419.397776,950.912823 420.862126,953.708399 C422.326475,956.503976 424.212352,958.811401 426.519812,960.630745 C428.827272,962.450088 431.622807,963.359746 434.9065,963.359746 C439.965162,963.359746 443.892223,961.584804 446.687799,958.034865 C449.483376,954.484927 450.881143,949.914449 450.881143,944.323296 C450.881143,941.039603 450.548341,937.600652 449.882728,934.006339 C449.217114,930.412026 448.152149,927.128383 446.687799,924.155309 C445.22345,921.182236 443.315386,918.719503 440.963552,916.767036 C438.611718,914.81457 435.705249,913.838352 432.244059,913.838352 C427.540391,913.838352 423.746451,915.457987 420.862126,918.697306 C417.977801,921.936625 416.53566,927.106145 416.53566,934.206022 Z M541.337562,959.099841 C541.337562,960.431068 542.136286,961.429474 543.733758,962.095087 C545.331231,962.760701 547.106173,963.270997 549.058639,963.62599 C549.857376,963.803487 550.256738,964.33597 550.256738,965.223455 C550.256738,965.755946 550.167991,966.465923 549.990494,967.353407 C547.683034,967.17591 545.419982,967.020603 543.20127,966.88748 C540.982559,966.754357 538.586386,966.687797 536.012681,966.687797 C533.616472,966.687797 531.242486,966.754357 528.890652,966.88748 C526.538818,967.020603 524.209206,967.17591 521.901746,967.353407 C521.724249,966.465923 521.635502,965.755946 521.635502,965.223455 C521.635502,964.33597 522.034864,963.803487 522.8336,963.62599 C524.697318,963.270997 526.383513,962.760701 527.892237,962.095087 C529.400961,961.429474 530.155311,960.431068 530.155311,959.099841 L530.155311,933.007924 C530.155311,930.789212 530.022191,928.748028 529.755945,926.884311 C529.4897,925.020593 528.979404,923.400958 528.225042,922.025357 C527.47068,920.649755 526.450088,919.58479 525.163235,918.830428 C523.876383,918.076066 522.212374,917.698891 520.171159,917.698891 C517.952448,917.698891 515.778143,918.076066 513.64818,918.830428 C511.518217,919.58479 509.63234,920.694129 507.990494,922.158479 C506.348647,923.622828 505.039627,925.419958 504.063394,927.549921 C503.087161,929.679884 502.599051,932.12043 502.599051,934.871632 L502.599051,959.099841 C502.599051,960.431068 503.375589,961.429474 504.928687,962.095087 C506.481785,962.760701 508.145794,963.270997 509.920763,963.62599 C510.719499,963.803487 511.118861,964.33597 511.118861,965.223455 C511.118861,965.755946 511.030114,966.465923 510.852617,967.353407 C508.545157,967.17591 506.282105,967.020603 504.063394,966.88748 C501.844682,966.754357 499.492883,966.687797 497.007926,966.687797 C494.434221,966.687797 491.993675,966.754357 489.686215,966.88748 C487.378755,967.020603 485.115703,967.17591 482.896991,967.353407 C482.719494,966.465923 482.630747,965.755946 482.630747,965.223455 C482.630747,964.33597 483.030109,963.803487 483.828845,963.62599 C485.781312,963.270997 487.556254,962.760701 489.153727,962.095087 C490.751199,961.429474 491.549923,960.386695 491.549923,958.966719 L491.549923,922.757528 C491.549923,920.095074 491.084001,918.18701 490.152142,917.03328 C489.220283,915.87955 487.201286,915.169573 484.09509,914.903328 C482.94136,914.725831 482.364503,914.104601 482.364503,913.03962 C482.364503,912.595877 482.45325,912.019021 482.630747,911.309033 C483.784477,911.309033 485.404112,911.242473 487.489701,911.10935 C489.57529,910.976228 491.283672,910.82092 492.614899,910.643423 C494.656114,910.288429 496.47543,909.911254 498.072903,909.511886 C499.670375,909.112518 500.824088,908.912837 501.534075,908.912837 C502.776554,908.912837 503.397784,909.57844 503.397784,910.909667 C503.397784,912.152146 503.264663,913.63866 502.998418,915.369255 C502.732172,917.09985 502.599051,919.385089 502.599051,922.22504 C506.415235,917.965113 510.076055,914.68147 513.581619,912.374009 C517.087183,910.066549 520.925497,908.912837 525.096674,908.912837 C530.510331,908.912837 534.570512,910.488098 537.27734,913.638669 C539.984168,916.789239 541.337562,921.160035 541.337562,926.751189 L541.337562,959.099841 Z M604.370843,925.286846 C603.660855,925.286846 603.150559,925.131539 602.839939,924.820919 C602.52932,924.5103 602.329639,924.177498 602.24089,923.822504 C601.619651,920.183817 600.17751,917.587963 597.914424,916.034865 C595.651338,914.481767 592.833617,913.70523 589.461175,913.70523 C586.88747,913.70523 584.602231,914.437394 582.605391,915.901743 C580.608551,917.366093 579.610145,919.38509 579.610145,921.958796 C579.610145,924.266256 580.519803,926.196506 582.339147,927.749604 C584.15849,929.302702 587.464321,930.83359 592.256738,932.342314 C594.830443,933.14105 597.204429,934.028521 599.378767,935.004754 C601.553104,935.980987 603.416794,937.156887 604.969892,938.532488 C606.52299,939.908089 607.743263,941.594285 608.630748,943.591125 C609.518232,945.587966 609.961968,947.961951 609.961968,950.713154 C609.961968,953.020614 609.540419,955.239292 608.697309,957.369255 C607.854198,959.499218 606.567365,961.362908 604.83677,962.96038 C603.106175,964.557853 600.93187,965.844686 598.31379,966.820919 C595.695711,967.797152 592.567374,968.285261 588.928687,968.285261 C586.088737,968.285261 582.916027,967.95246 579.410462,967.286846 C575.904898,966.621233 572.732188,965.489707 569.892237,963.892235 C569.71474,961.584774 569.559433,959.166415 569.42631,956.637084 C569.293187,954.107753 569.226627,951.556273 569.226627,948.982567 L570.557847,948.982567 C571.445332,948.982567 572.199683,949.137875 572.820922,949.448494 C573.442161,949.759114 573.79715,950.26941 573.885898,950.979398 C574.240892,954.706833 575.683033,957.702049 578.212364,959.965135 C580.741695,962.22822 584.269394,963.359746 588.795565,963.359746 C592.434252,963.359746 595.229787,962.538835 597.182253,960.896989 C599.134719,959.255142 600.110938,957.014277 600.110938,954.174326 C600.110938,951.245627 599.045972,949.004762 596.916009,947.451664 C594.786046,945.898566 591.635523,944.500799 587.464345,943.25832 C582.228186,941.660848 578.123631,939.57529 575.150557,937.001585 C572.177484,934.427879 570.690969,930.656126 570.690969,925.686212 C570.690969,923.378752 571.134705,921.204448 572.02219,919.163233 C572.909674,917.122018 574.152134,915.347076 575.749607,913.838352 C577.347079,912.329628 579.299516,911.131542 581.606976,910.244057 C583.914436,909.356572 586.488103,908.912837 589.328053,908.912837 C592.877992,908.912837 596.228196,909.378759 599.378767,910.310618 C602.529337,911.242477 604.99207,912.240882 606.767039,913.305864 C606.855788,914.015851 606.944535,914.881136 607.033283,915.901743 C607.122032,916.922351 607.188592,917.987316 607.232966,919.096672 L607.366088,922.424723 C607.410463,923.534078 607.432649,924.532484 607.432649,925.419968 L604.370843,925.286846 Z" id="Recruitment-Solution" fill="#A7071B"></path>
            <path d="M242.355724,618.771777 C242.355724,634.795452 251.242797,648.521771 256.414267,654.376266 C271.491627,672.053171 290.597996,685.830552 313.733945,695.708823 C336.869895,705.587093 362.215077,710.526155 389.770253,710.526155 C417.325429,710.526155 442.020735,705.327143 463.856912,694.928963 C507.529267,673.612695 529.365116,638.779316 529.365116,590.427781 C529.365116,572.230967 523.256277,552.994623 511.038416,532.718173 C498.820555,512.441722 480.494039,494.245181 456.058317,478.128003 L323.48219,389.224012 C272.011201,356.989655 246.276093,315.397561 246.276093,264.446481 C246.276093,259.247391 246.536043,254.048379 247.055952,248.849289 C250.175406,208.816298 266.162367,176.192499 295.017316,150.976913 C323.872264,125.761328 362.474927,113.153724 410.826462,113.153724 C440.461274,113.153724 476.334455,115.75323 518.447082,120.95232 L566.798376,120.95232 L556.660201,235.591677 L549.641465,235.591677 C549.121556,208.55641 538.723533,186.850535 518.447082,170.473403 C498.170632,154.09627 471.395721,145.907826 438.121547,145.907826 C397.568646,145.907826 368.19423,158.125504 349.997415,182.561226 C341.158963,195.039041 336.739803,208.556472 336.739803,223.113924 C336.739803,237.671375 341.158963,250.019028 349.997415,260.157253 C358.835868,270.295478 372.8732,281.343378 392.109832,293.301285 L537.943572,388.444152 C567.578383,407.680785 590.713986,430.296486 607.351073,456.291935 C627.107614,486.966565 636.985737,518.420586 636.985737,550.654943 C636.985737,571.451302 632.696552,593.417127 624.118054,616.553076 C615.539556,639.689026 601.502224,661.13495 582.005637,680.891491 C562.509051,700.648032 537.423819,716.764969 506.749189,729.242784 C476.074559,741.7206 442.151007,747.959414 404.977515,747.959414 L0.218700475,746.678045 L0.218700475,736.011215 L14.0855784,736.011215 C31.863716,736.011215 47.5082424,729.611182 61.019627,716.810923 C74.5310115,704.010664 81.6421599,688.366137 82.3532854,669.876874 L82.3532854,77.8678532 C81.6421599,59.3785901 74.7087902,43.556285 61.5529684,30.4004632 C48.3971466,17.2446414 32.5748415,10.6668292 14.0855784,10.6668292 L0.218700475,10.6668292 L0.218700475,0 L654.522004,0 C746.257194,0 817.368678,20.9778877 867.858588,62.9342923 C907.681616,95.6460655 927.592832,141.86853 927.592832,201.603072 C927.592832,261.337614 908.214953,309.871202 869.458613,347.205291 C830.702273,384.53938 786.435374,403.206144 736.656589,403.206144 C732.389836,403.206144 727.76759,402.850587 722.789711,402.139461 C751.945857,417.784222 776.30154,435.206536 795.857491,454.406924 C815.413442,473.607313 832.480199,491.740741 847.058271,508.807753 C861.636344,525.874765 874.080854,540.985956 884.392174,554.141777 C894.703493,567.297599 908.392454,584.719913 925.459466,606.409241 C942.526478,628.098568 960.304349,650.676464 978.793612,674.143606 C997.282875,697.610748 1017.72743,721.610873 1040.12788,746.144703 C1062.52833,770.678533 1087.41735,793.967544 1114.79568,816.012434 C1142.17402,838.057325 1170.08527,856.190753 1198.53029,870.413263 C1258.97596,900.99166 1325.4652,916.636186 1398,917.347312 L1398,928.014141 C1342.53221,955.748036 1283.50968,969.614775 1220.93064,969.614775 C1165.46285,969.614775 1114.97369,961.081397 1069.46166,944.014385 C971.326341,907.746984 887.770348,836.991058 818.791174,731.744484 C801.013036,706.143966 767.946197,657.077042 719.589662,584.542241 C671.233128,512.007439 639.944075,465.784975 625.721565,445.873461 C600.832173,406.761558 580.920957,385.428113 565.987322,381.872486 L565.987322,371.205656 L587.32098,371.205656 C623.588381,371.205656 657.010778,363.027836 687.589175,346.671949 C733.812332,321.071431 756.923565,273.782295 756.923565,204.803121 C756.923565,154.31321 742.701268,115.379673 714.256248,88.001341 C685.811228,60.6230091 651.677715,46.9340485 611.854687,46.9340485 L242.355724,46.9340485 C242.355724,417.47675 242.355724,608.089326 242.355724,618.771777 Z" id="Combined-Shape" fill="#0E4A90"></path>
        </g>
    </g>
</svg>